<svg xmlns="http://www.w3.org/2000/svg" width="1024" height="1024" viewBox="0 0 1024 1024" fill="none">
	<path d="M 423.675 212.622 C 420.394 213.630, 417.143 215.768, 413.519 219.302 C 405.696 226.930, 405 230.066, 405 257.682 L 405 280 379.182 280 C 347.642 280, 345.520 280.444, 337.014 288.821 C 332.807 292.965, 330.671 296.074, 329.112 300.321 L 326.975 306.143 327.237 456.821 L 327.500 607.500 330.306 613.214 C 333.832 620.395, 340.654 626.523, 347.328 628.505 C 351.655 629.790, 366.884 630, 455.567 630 C 574.099 630, 565.435 630.650, 575.032 621.040 C 578.274 617.793, 581.122 613.845, 581.913 611.500 C 582.722 609.103, 583.452 600.988, 583.734 591.250 L 584.206 575 628.421 575 C 665.753 575, 673.463 574.755, 677.942 573.425 C 685.179 571.275, 692.261 564.592, 694.968 557.355 C 696.972 552, 697 550.149, 697 422.940 L 697 293.955 656.401 253.728 C 634.072 231.602, 614.834 212.953, 613.651 212.285 C 612.006 211.356, 589.982 211.079, 520 211.105 C 442.052 211.134, 427.785 211.359, 423.675 212.622 M 426.117 229.631 C 421.627 232.775, 421 236.372, 421 258.968 L 421 280 489.318 280 C 565.042 280, 563.640 279.890, 572.283 286.490 C 575.521 288.962, 577.847 291.974, 580.186 296.722 L 583.500 303.451 583.500 334.476 L 583.500 365.500 579.500 365.826 C 577.300 366.005, 573.587 365.865, 571.250 365.514 L 567 364.877 566.996 335.689 C 566.993 308.521, 566.858 306.279, 565.044 303.304 C 563.972 301.547, 561.855 299.297, 560.339 298.304 C 557.719 296.590, 552.480 296.515, 455.041 296.803 C 342.245 297.137, 349.998 296.675, 345.956 303.304 C 344.048 306.434, 344.007 309.574, 344.004 455.300 C 344 621.858, 343.374 608.451, 351.316 612.057 C 355.336 613.882, 359.430 613.957, 455.782 613.978 C 563.264 614.002, 559.932 614.153, 564.500 609.035 C 566.350 606.963, 566.537 604.986, 567 582.647 L 567.500 558.500 621.097 558 C 678.781 557.462, 677.048 557.633, 679.090 552.264 C 679.874 550.202, 680.318 457.326, 680.083 344.750 L 680 305 650.750 304.978 C 623.502 304.958, 621.192 304.817, 617 302.921 C 611.491 300.431, 606.536 295.816, 603.662 290.500 C 601.609 286.702, 601.485 285.021, 601.194 257.250 L 600.889 228 514.667 228 C 436.572 228, 428.226 228.154, 426.117 229.631 M 617.830 240.697 C 617.636 241.139, 617.707 251.103, 617.988 262.839 L 618.500 284.179 621.306 286.589 C 624.090 288.982, 624.281 289, 646.532 289 L 668.953 289 644.388 264.750 C 630.877 251.412, 619.454 240.364, 619.003 240.197 C 618.552 240.031, 618.024 240.256, 617.830 240.697 M 368.110 317.396 C 363.143 320.148, 363.073 320.773, 363.035 362.816 C 362.999 403.744, 363.096 404.768, 367.367 408.228 C 369.351 409.835, 375.543 409.957, 455.827 409.978 L 542.154 410 545.077 407.077 L 548 404.154 548 363 L 548 321.846 545.077 318.923 L 542.154 316 456.327 316.035 C 387.007 316.064, 370.040 316.326, 368.110 317.396 M 454.750 332.756 L 380 333.013 380 363.006 L 380 393 455.415 393 L 530.829 393 531.471 385.750 C 532.448 374.714, 531.680 332.680, 530.500 332.583 C 529.950 332.537, 495.863 332.615, 454.750 332.756 M 621.505 359.288 L 615.605 364.650 622.553 371.315 L 629.500 377.981 598.889 377.990 L 568.279 378 567.648 383.250 C 567.301 386.137, 567.013 395.122, 567.009 403.215 C 566.999 420.211, 566.500 419.368, 577.250 420.514 L 584 421.233 584 408.116 L 584 395 606.089 395 L 628.177 395 622.043 401.694 L 615.910 408.388 621.454 413.933 L 626.999 419.477 643 403.500 C 651.800 394.713, 659 387.063, 659 386.500 C 659 385.937, 651.891 378.378, 643.202 369.702 L 627.404 353.927 621.505 359.288 M 540 430.062 C 518.114 432.771, 501.535 440.111, 496.934 449.129 C 495.130 452.666, 495 455.295, 495 488.303 C 495 523.273, 495.027 523.736, 497.295 528.025 C 509.106 550.361, 578.064 554.353, 604.859 534.252 C 611.726 529.100, 611.953 527.640, 611.978 488.566 C 611.999 455.243, 611.904 453.434, 609.927 449.350 C 606.195 441.641, 592.150 434.344, 574.913 431.160 C 566.409 429.589, 548.395 429.022, 540 430.062 M 383.500 431.890 C 365.924 440.002, 371.768 465.058, 391.218 464.984 C 406.468 464.925, 413.689 445.394, 402.373 434.814 C 396.913 429.708, 390.410 428.701, 383.500 431.890 M 445.500 431.423 C 438.842 434.407, 434.905 440.507, 434.847 447.928 C 434.827 450.570, 435.527 454.119, 436.404 455.814 C 442.087 466.805, 458.765 467.984, 466.222 457.923 C 470.477 452.183, 470.333 443.085, 465.890 436.845 C 461.840 431.158, 451.956 428.529, 445.500 431.423 M 538.597 443.139 C 529.234 444.340, 520.580 446.672, 515.009 449.496 C 506.097 454.012, 506.171 456.500, 515.352 460.966 C 524.694 465.511, 532.151 467.072, 547.500 467.698 C 568.361 468.549, 585.305 465.629, 594.197 459.652 C 599.157 456.317, 599.020 453.682, 593.725 450.579 C 581.967 443.688, 558.742 440.554, 538.597 443.139 M 508 474.822 C 508 479.923, 513.071 483.292, 526.677 487.230 C 533.582 489.229, 536.731 489.495, 553.500 489.495 C 570.283 489.495, 573.415 489.230, 580.343 487.225 C 593.601 483.388, 599 479.769, 599 474.719 C 599 472.307, 598.689 471.919, 597.250 472.536 C 583.652 478.363, 564.648 481.509, 548 480.689 C 532.319 479.916, 522.231 477.762, 509.750 472.521 C 508.306 471.915, 508 472.317, 508 474.822 M 386.646 492.146 C 377.691 494.158, 372.368 501.592, 373.315 510.765 C 374.816 525.310, 390.896 531.690, 402.161 522.211 C 415.735 510.789, 404.091 488.226, 386.646 492.146 M 446.655 492.460 C 434.243 496.880, 430.596 511.835, 439.659 521.149 C 447.902 529.622, 462.550 527.791, 467.344 517.688 C 469.242 513.687, 469.534 504.905, 467.875 501.684 C 463.730 493.636, 454.554 489.647, 446.655 492.460 M 508.032 496.750 C 508.076 500.555, 509.800 502.480, 515.912 505.550 C 524.376 509.801, 537.422 512.078, 553.500 512.109 C 578.854 512.158, 599 505.429, 599 496.911 C 599 495.310, 598.831 494, 598.624 494 C 598.418 494, 595.771 495.096, 592.743 496.435 C 575.977 503.850, 543.738 504.964, 521.124 498.911 C 517.067 497.825, 512.805 496.276, 511.652 495.469 C 508.675 493.383, 507.996 493.624, 508.032 496.750 M 593 518.651 C 584.628 521.974, 572.782 524.120, 559.464 524.725 C 541.499 525.542, 529.099 523.701, 509.750 517.342 C 508.378 516.891, 508 517.341, 508 519.429 C 508 523.105, 511.558 526.317, 518.512 528.919 C 530.163 533.278, 536.742 534.292, 553.500 534.314 C 571.766 534.337, 580.762 532.794, 590.748 527.924 C 597.288 524.734, 599.333 522.391, 598.812 518.684 L 598.500 516.467 593 518.651 M 497.793 565.218 C 498.037 581.207, 498.358 584.738, 499.698 586.219 C 501.122 587.792, 503.249 587.998, 517.905 587.985 C 527.032 587.976, 535.138 587.565, 535.918 587.072 C 536.698 586.578, 537.678 583.772, 538.095 580.837 C 539.085 573.872, 539.173 559.789, 538.235 558.458 C 537.831 557.885, 533.875 556.902, 529.445 556.274 C 520.759 555.043, 511.307 552.128, 503.783 548.361 C 501.189 547.063, 498.714 546, 498.283 545.999 C 497.852 545.998, 497.632 554.647, 497.793 565.218 M 384.684 554.449 C 379.701 556.226, 377.132 558.598, 374.881 563.500 C 367.705 579.126, 384.663 594.248, 399.566 585.514 C 407.128 581.082, 409.907 571.748, 406.119 563.500 C 403.934 558.742, 401.704 556.610, 396.746 554.538 C 392.294 552.678, 389.702 552.659, 384.684 554.449 M 447.479 553.886 C 432.106 557.792, 429.964 579.152, 444.200 586.589 C 445.686 587.365, 449.331 588, 452.302 588 C 458.536 588, 463.064 585.513, 466.726 580.078 C 471.525 572.957, 468.379 559.316, 461.066 555.534 C 457.406 553.642, 451.339 552.906, 447.479 553.886" stroke="none" fill="#1e538a" fill-rule="evenodd"/>
</svg>