<svg width="64" height="64" viewBox="0 0 64 64" fill="none" xmlns="http://www.w3.org/2000/svg">
  <rect width="64" height="64" rx="14" fill="url(#paint0_linear_icon)" />
  <path
    d="M19.5 25.6C19.5 23.2202 21.4202 21.3 23.8 21.3H24.15C26.5298 21.3 28.45 23.2202 28.45 25.6V39.1C28.45 41.4798 26.5298 43.4 24.15 43.4H23.8C21.4202 43.4 19.5 41.4798 19.5 39.1V25.6Z"
    fill="white"
    fill-opacity="0.95"
  />
  <path
    d="M35.4 21.3H40.6C44.7216 21.3 48.05 24.6284 48.05 28.75V35.95C48.05 40.0716 44.7216 43.4 40.6 43.4H35.4V21.3ZM39.95 25.5V39.2H40.55C42.7704 39.2 44.55 37.4204 44.55 35.2V29.5C44.55 27.2796 42.7704 25.5 40.55 25.5H39.95Z"
    fill="white"
    fill-opacity="0.95"
  />
  <path d="M31.6 18.7V46.3" stroke="white" stroke-width="2.8" stroke-linecap="round" stroke-opacity="0.95" />
  <defs>
    <linearGradient id="paint0_linear_icon" x1="7" y1="6" x2="57" y2="59" gradientUnits="userSpaceOnUse">
      <stop stop-color="#3B82F6" />
      <stop offset="1" stop-color="#7C3AED" />
    </linearGradient>
  </defs>
</svg>
